<svg width="320" height="91" viewBox="0 0 320 91" fill="none" xmlns="http://www.w3.org/2000/svg">
<path d="M9.36987 61.1606L11.3672 65.8994C15.7889 76.3975 17.9999 81.6509 22.4838 84.6033C26.9679 87.5557 32.7151 87.56 44.2143 87.56H50.1485C61.6477 87.56 67.3951 87.56 71.879 84.6033C76.3631 81.6466 78.574 76.3975 83.0001 65.8994L84.9931 61.1606" fill="white"/>
<path d="M9.36987 61.1606L11.3672 65.8994C15.7889 76.3975 17.9999 81.6509 22.4838 84.6033C26.9679 87.5557 32.7151 87.56 44.2143 87.56H50.1485C61.6477 87.56 67.3951 87.56 71.879 84.6033C76.3631 81.6466 78.574 76.3975 83.0001 65.8994L84.9931 61.1606" stroke="black" stroke-width="4" stroke-linecap="round" stroke-linejoin="round"/>
<path d="M86.1402 46.1161C89.441 46.1161 91.6651 50.5952 91.6651 54.2867C91.6651 64.4637 76.3893 66.2016 73.8715 56.4954C71.6339 65.1236 58.3153 65.1236 56.0778 56.4954C53.8402 65.1236 40.5216 65.1236 38.2841 56.4954C36.0466 65.1236 22.7281 65.1236 20.4904 56.4954C17.9727 66.2016 2.69678 64.4592 2.69678 54.2867C2.69678 50.5908 4.92098 46.1117 8.22171 46.1117C12.4032 30.5493 28.2574 18.9688 47.181 18.9688C66.1046 18.9688 81.9587 30.5493 86.1402 46.1161Z" fill="#03A9F4"/>
<path d="M60.5262 34.3684L62.7504 38.7683M33.8358 34.3684L31.6115 38.7683M47.181 32.1684V36.5683M86.1402 46.1161C89.441 46.1161 91.6651 50.5952 91.6651 54.2867C91.6651 64.4637 76.3893 66.2016 73.8715 56.4954C71.6339 65.1236 58.3153 65.1236 56.0778 56.4954C53.8402 65.1236 40.5216 65.1236 38.2841 56.4954C36.0467 65.1236 22.7281 65.1236 20.4904 56.4954C17.9727 66.2016 2.69678 64.4592 2.69678 54.2867C2.69678 50.5908 4.92098 46.1117 8.22171 46.1117C12.4032 30.5493 28.2574 18.9688 47.181 18.9688C66.1046 18.9688 81.9587 30.5493 86.1402 46.1161Z" stroke="black" stroke-width="4" stroke-linecap="round" stroke-linejoin="round"/>
<path d="M111.338 85.3425C110.162 85.3425 109.13 85.0725 108.242 84.5325C107.354 83.9805 106.664 83.2185 106.172 82.2465C105.68 81.2745 105.434 80.1405 105.434 78.8445C105.434 77.5605 105.68 76.4265 106.172 75.4425C106.676 74.4585 107.384 73.6905 108.296 73.1385C109.22 72.5865 110.306 72.3105 111.554 72.3105C112.97 72.3105 114.152 72.6525 115.1 73.3365C116.048 74.0085 116.654 74.9505 116.918 76.1625H115.172C115.004 75.4065 114.608 74.8065 113.984 74.3625C113.36 73.9185 112.55 73.6965 111.554 73.6965C110.63 73.6965 109.82 73.9065 109.124 74.3265C108.44 74.7345 107.912 75.3225 107.54 76.0905C107.168 76.8585 106.982 77.7765 106.982 78.8445C106.982 79.9125 107.168 80.8365 107.54 81.6165C107.912 82.3845 108.428 82.9725 109.088 83.3805C109.76 83.7885 110.528 83.9925 111.392 83.9925C112.736 83.9925 113.75 83.5965 114.434 82.8045C115.118 82.0125 115.508 80.9385 115.604 79.5825H111.968V78.3945H117.152V85.1265H115.766L115.64 83.0565C115.34 83.5485 114.992 83.9685 114.596 84.3165C114.212 84.6525 113.756 84.9105 113.228 85.0905C112.7 85.2585 112.07 85.3425 111.338 85.3425ZM123.465 85.3425C122.625 85.3425 121.881 85.1385 121.233 84.7305C120.585 84.3225 120.075 83.7465 119.703 83.0025C119.343 82.2585 119.163 81.3885 119.163 80.3925C119.163 79.3965 119.343 78.5265 119.703 77.7825C120.075 77.0385 120.585 76.4625 121.233 76.0545C121.893 75.6465 122.649 75.4425 123.501 75.4425C124.413 75.4425 125.175 75.6465 125.787 76.0545C126.399 76.4625 126.861 77.0085 127.173 77.6925C127.485 78.3765 127.641 79.1265 127.641 79.9425C127.641 80.0625 127.641 80.1825 127.641 80.3025C127.641 80.4225 127.635 80.5665 127.623 80.7345H120.297V79.5645H126.165C126.141 78.6405 125.871 77.9385 125.355 77.4585C124.851 76.9665 124.221 76.7205 123.465 76.7205C122.961 76.7205 122.493 76.8465 122.061 77.0985C121.641 77.3385 121.299 77.6985 121.035 78.1785C120.771 78.6585 120.639 79.2585 120.639 79.9785V80.4825C120.639 81.2745 120.771 81.9405 121.035 82.4805C121.299 83.0085 121.641 83.4045 122.061 83.6685C122.493 83.9325 122.961 84.0645 123.465 84.0645C124.137 84.0645 124.665 83.9385 125.049 83.6865C125.433 83.4225 125.715 83.0505 125.895 82.5705H127.389C127.245 83.0985 126.993 83.5725 126.633 83.9925C126.285 84.4125 125.841 84.7425 125.301 84.9825C124.773 85.2225 124.161 85.3425 123.465 85.3425ZM133.11 85.1265C132.57 85.1265 132.102 85.0425 131.706 84.8745C131.31 84.7065 131.004 84.4245 130.788 84.0285C130.584 83.6205 130.482 83.0745 130.482 82.3905V76.9365H128.826V75.6585H130.482L130.68 73.3005H131.994V75.6585H134.676V76.9365H131.994V82.3905C131.994 82.9545 132.108 83.3385 132.336 83.5425C132.564 83.7345 132.966 83.8305 133.542 83.8305H134.64V85.1265H133.11ZM145.256 85.1265C144.716 85.1265 144.248 85.0425 143.852 84.8745C143.456 84.7065 143.15 84.4245 142.934 84.0285C142.73 83.6205 142.628 83.0745 142.628 82.3905V76.9365H140.972V75.6585H142.628L142.826 73.3005H144.14V75.6585H146.822V76.9365H144.14V82.3905C144.14 82.9545 144.254 83.3385 144.482 83.5425C144.71 83.7345 145.112 83.8305 145.688 83.8305H146.786V85.1265H145.256ZM148.897 85.1265V72.1665H150.409V77.1885C150.721 76.6485 151.147 76.2225 151.687 75.9105C152.227 75.5985 152.809 75.4425 153.433 75.4425C154.165 75.4425 154.783 75.5805 155.287 75.8565C155.803 76.1205 156.193 76.5285 156.457 77.0805C156.733 77.6325 156.871 78.3345 156.871 79.1865V85.1265H155.377V79.3485C155.377 78.4845 155.173 77.8365 154.765 77.4045C154.357 76.9605 153.805 76.7385 153.109 76.7385C152.617 76.7385 152.167 76.8585 151.759 77.0985C151.351 77.3265 151.021 77.6685 150.769 78.1245C150.529 78.5805 150.409 79.1325 150.409 79.7805V85.1265H148.897ZM163.297 85.3425C162.457 85.3425 161.713 85.1385 161.065 84.7305C160.417 84.3225 159.907 83.7465 159.535 83.0025C159.175 82.2585 158.995 81.3885 158.995 80.3925C158.995 79.3965 159.175 78.5265 159.535 77.7825C159.907 77.0385 160.417 76.4625 161.065 76.0545C161.725 75.6465 162.481 75.4425 163.333 75.4425C164.245 75.4425 165.007 75.6465 165.619 76.0545C166.231 76.4625 166.693 77.0085 167.005 77.6925C167.317 78.3765 167.473 79.1265 167.473 79.9425C167.473 80.0625 167.473 80.1825 167.473 80.3025C167.473 80.4225 167.467 80.5665 167.455 80.7345H160.129V79.5645H165.997C165.973 78.6405 165.703 77.9385 165.187 77.4585C164.683 76.9665 164.053 76.7205 163.297 76.7205C162.793 76.7205 162.325 76.8465 161.893 77.0985C161.473 77.3385 161.131 77.6985 160.867 78.1785C160.603 78.6585 160.471 79.2585 160.471 79.9785V80.4825C160.471 81.2745 160.603 81.9405 160.867 82.4805C161.131 83.0085 161.473 83.4045 161.893 83.6685C162.325 83.9325 162.793 84.0645 163.297 84.0645C163.969 84.0645 164.497 83.9385 164.881 83.6865C165.265 83.4225 165.547 83.0505 165.727 82.5705H167.221C167.077 83.0985 166.825 83.5725 166.465 83.9925C166.117 84.4125 165.673 84.7425 165.133 84.9825C164.605 85.2225 163.993 85.3425 163.297 85.3425Z" fill="#03A9F4"/>
<path d="M174.403 85.1265V75.6585H175.771L175.843 76.9545C176.131 76.4865 176.521 76.1205 177.013 75.8565C177.505 75.5805 178.021 75.4425 178.561 75.4425C179.017 75.4425 179.425 75.5085 179.785 75.6405C180.157 75.7605 180.481 75.9525 180.757 76.2165C181.033 76.4685 181.255 76.7865 181.423 77.1705C181.735 76.6065 182.155 76.1805 182.683 75.8925C183.223 75.5925 183.787 75.4425 184.375 75.4425C185.071 75.4425 185.665 75.5805 186.157 75.8565C186.661 76.1205 187.045 76.5285 187.309 77.0805C187.585 77.6205 187.723 78.2985 187.723 79.1145V85.1265H186.229V79.2765C186.229 78.4245 186.043 77.7885 185.671 77.3685C185.299 76.9485 184.795 76.7385 184.159 76.7385C183.727 76.7385 183.331 76.8525 182.971 77.0805C182.623 77.3085 182.341 77.6445 182.125 78.0885C181.921 78.5325 181.819 79.0725 181.819 79.7085V85.1265H180.307V79.2765C180.307 78.4245 180.121 77.7885 179.749 77.3685C179.377 76.9485 178.879 76.7385 178.255 76.7385C177.835 76.7385 177.445 76.8525 177.085 77.0805C176.737 77.3085 176.455 77.6445 176.239 78.0885C176.023 78.5325 175.915 79.0725 175.915 79.7085V85.1265H174.403ZM194.147 85.3425C193.307 85.3425 192.563 85.1385 191.915 84.7305C191.267 84.3225 190.757 83.7465 190.385 83.0025C190.025 82.2585 189.845 81.3885 189.845 80.3925C189.845 79.3965 190.025 78.5265 190.385 77.7825C190.757 77.0385 191.267 76.4625 191.915 76.0545C192.575 75.6465 193.331 75.4425 194.183 75.4425C195.095 75.4425 195.857 75.6465 196.469 76.0545C197.081 76.4625 197.543 77.0085 197.855 77.6925C198.167 78.3765 198.323 79.1265 198.323 79.9425C198.323 80.0625 198.323 80.1825 198.323 80.3025C198.323 80.4225 198.317 80.5665 198.305 80.7345H190.979V79.5645H196.847C196.823 78.6405 196.553 77.9385 196.037 77.4585C195.533 76.9665 194.903 76.7205 194.147 76.7205C193.643 76.7205 193.175 76.8465 192.743 77.0985C192.323 77.3385 191.981 77.6985 191.717 78.1785C191.453 78.6585 191.321 79.2585 191.321 79.9785V80.4825C191.321 81.2745 191.453 81.9405 191.717 82.4805C191.981 83.0085 192.323 83.4045 192.743 83.6685C193.175 83.9325 193.643 84.0645 194.147 84.0645C194.819 84.0645 195.347 83.9385 195.731 83.6865C196.115 83.4225 196.397 83.0505 196.577 82.5705H198.071C197.927 83.0985 197.675 83.5725 197.315 83.9925C196.967 84.4125 196.523 84.7425 195.983 84.9825C195.455 85.2225 194.843 85.3425 194.147 85.3425ZM203.838 85.3425C202.986 85.3425 202.278 85.2165 201.714 84.9645C201.162 84.7005 200.742 84.3405 200.454 83.8845C200.166 83.4165 199.992 82.8765 199.932 82.2645H201.48C201.528 82.5885 201.636 82.8885 201.804 83.1645C201.984 83.4285 202.242 83.6445 202.578 83.8125C202.914 83.9805 203.34 84.0645 203.856 84.0645C204.264 84.0645 204.612 84.0045 204.9 83.8845C205.188 83.7525 205.404 83.5725 205.548 83.3445C205.704 83.1165 205.782 82.8525 205.782 82.5525C205.782 82.1565 205.692 81.8505 205.512 81.6345C205.344 81.4065 205.092 81.2385 204.756 81.1305C204.432 81.0105 204.024 80.9205 203.532 80.8605C203.004 80.7885 202.536 80.6865 202.128 80.5545C201.72 80.4225 201.372 80.2485 201.084 80.0325C200.808 79.8165 200.598 79.5465 200.454 79.2225C200.31 78.8985 200.238 78.5145 200.238 78.0705C200.238 77.5545 200.376 77.0985 200.652 76.7025C200.928 76.3065 201.318 76.0005 201.822 75.7845C202.338 75.5565 202.944 75.4425 203.64 75.4425C204.66 75.4425 205.464 75.6765 206.052 76.1445C206.652 76.6125 207.006 77.2785 207.114 78.1425H205.62C205.56 77.6985 205.356 77.3505 205.008 77.0985C204.66 76.8465 204.198 76.7205 203.622 76.7205C203.01 76.7205 202.548 76.8345 202.236 77.0625C201.924 77.2905 201.768 77.5905 201.768 77.9625C201.768 78.2385 201.834 78.4905 201.966 78.7185C202.11 78.9345 202.35 79.1205 202.686 79.2765C203.022 79.4205 203.472 79.5285 204.036 79.6005C204.744 79.6845 205.344 79.8225 205.836 80.0145C206.328 80.1945 206.7 80.4765 206.952 80.8605C207.216 81.2445 207.342 81.7665 207.33 82.4265C207.33 83.0505 207.18 83.5785 206.88 84.0105C206.592 84.4425 206.184 84.7725 205.656 85.0005C205.14 85.2285 204.534 85.3425 203.838 85.3425ZM212.996 85.3425C212.144 85.3425 211.436 85.2165 210.872 84.9645C210.32 84.7005 209.9 84.3405 209.612 83.8845C209.324 83.4165 209.15 82.8765 209.09 82.2645H210.638C210.686 82.5885 210.794 82.8885 210.962 83.1645C211.142 83.4285 211.4 83.6445 211.736 83.8125C212.072 83.9805 212.498 84.0645 213.014 84.0645C213.422 84.0645 213.77 84.0045 214.058 83.8845C214.346 83.7525 214.562 83.5725 214.706 83.3445C214.862 83.1165 214.94 82.8525 214.94 82.5525C214.94 82.1565 214.85 81.8505 214.67 81.6345C214.502 81.4065 214.25 81.2385 213.914 81.1305C213.59 81.0105 213.182 80.9205 212.69 80.8605C212.162 80.7885 211.694 80.6865 211.286 80.5545C210.878 80.4225 210.53 80.2485 210.242 80.0325C209.966 79.8165 209.756 79.5465 209.612 79.2225C209.468 78.8985 209.396 78.5145 209.396 78.0705C209.396 77.5545 209.534 77.0985 209.81 76.7025C210.086 76.3065 210.476 76.0005 210.98 75.7845C211.496 75.5565 212.102 75.4425 212.798 75.4425C213.818 75.4425 214.622 75.6765 215.21 76.1445C215.81 76.6125 216.164 77.2785 216.272 78.1425H214.778C214.718 77.6985 214.514 77.3505 214.166 77.0985C213.818 76.8465 213.356 76.7205 212.78 76.7205C212.168 76.7205 211.706 76.8345 211.394 77.0625C211.082 77.2905 210.926 77.5905 210.926 77.9625C210.926 78.2385 210.992 78.4905 211.124 78.7185C211.268 78.9345 211.508 79.1205 211.844 79.2765C212.18 79.4205 212.63 79.5285 213.194 79.6005C213.902 79.6845 214.502 79.8225 214.994 80.0145C215.486 80.1945 215.858 80.4765 216.11 80.8605C216.374 81.2445 216.5 81.7665 216.488 82.4265C216.488 83.0505 216.338 83.5785 216.038 84.0105C215.75 84.4425 215.342 84.7725 214.814 85.0005C214.298 85.2285 213.692 85.3425 212.996 85.3425ZM221.687 85.3425C220.967 85.3425 220.367 85.2105 219.887 84.9465C219.407 84.6705 219.047 84.3105 218.807 83.8665C218.567 83.4105 218.447 82.9245 218.447 82.4085C218.447 81.7845 218.603 81.2565 218.915 80.8245C219.239 80.3805 219.689 80.0445 220.265 79.8165C220.841 79.5885 221.513 79.4745 222.281 79.4745H224.639C224.639 78.8625 224.567 78.3525 224.423 77.9445C224.279 77.5365 224.045 77.2305 223.721 77.0265C223.397 76.8225 222.965 76.7205 222.425 76.7205C221.885 76.7205 221.423 76.8585 221.039 77.1345C220.655 77.3985 220.415 77.7945 220.319 78.3225H218.771C218.843 77.6985 219.053 77.1765 219.401 76.7565C219.749 76.3245 220.187 76.0005 220.715 75.7845C221.255 75.5565 221.825 75.4425 222.425 75.4425C223.277 75.4425 223.979 75.5985 224.531 75.9105C225.083 76.2105 225.491 76.6365 225.755 77.1885C226.019 77.7285 226.151 78.3705 226.151 79.1145V85.1265H224.801L224.711 83.5065C224.591 83.7585 224.435 83.9985 224.243 84.2265C224.063 84.4425 223.847 84.6345 223.595 84.8025C223.343 84.9705 223.055 85.1025 222.731 85.1985C222.419 85.2945 222.071 85.3425 221.687 85.3425ZM221.903 84.0645C222.299 84.0645 222.665 83.9745 223.001 83.7945C223.337 83.6145 223.625 83.3745 223.865 83.0745C224.117 82.7625 224.309 82.4145 224.441 82.0305C224.573 81.6465 224.639 81.2445 224.639 80.8245V80.6445H222.407C221.843 80.6445 221.381 80.7165 221.021 80.8605C220.673 81.0045 220.421 81.2085 220.265 81.4725C220.109 81.7245 220.031 82.0125 220.031 82.3365C220.031 82.6845 220.103 82.9905 220.247 83.2545C220.391 83.5065 220.601 83.7045 220.877 83.8485C221.165 83.9925 221.507 84.0645 221.903 84.0645ZM232.357 89.3025C231.505 89.3025 230.755 89.1945 230.107 88.9785C229.471 88.7745 228.973 88.4565 228.613 88.0245C228.265 87.5925 228.091 87.0585 228.091 86.4225C228.091 86.1225 228.145 85.8105 228.253 85.4865C228.373 85.1625 228.571 84.8505 228.847 84.5505C229.135 84.2505 229.537 83.9805 230.053 83.7405L231.205 84.3525C230.521 84.6165 230.077 84.9225 229.873 85.2705C229.669 85.6185 229.567 85.9545 229.567 86.2785C229.567 86.6745 229.681 87.0045 229.909 87.2685C230.149 87.5325 230.479 87.7305 230.899 87.8625C231.319 87.9945 231.805 88.0605 232.357 88.0605C232.897 88.0605 233.359 87.9885 233.743 87.8445C234.139 87.7125 234.439 87.5145 234.643 87.2505C234.859 86.9985 234.967 86.6985 234.967 86.3505C234.967 85.8465 234.805 85.4505 234.481 85.1625C234.157 84.8865 233.527 84.7245 232.591 84.6765C231.859 84.6285 231.247 84.5625 230.755 84.4785C230.263 84.3945 229.855 84.2985 229.531 84.1905C229.219 84.0705 228.955 83.9385 228.739 83.7945C228.535 83.6505 228.349 83.5005 228.181 83.3445V82.9305L229.963 81.2205L231.385 81.6885L229.441 83.2905L229.675 82.6065C229.807 82.7025 229.933 82.7925 230.053 82.8765C230.173 82.9605 230.335 83.0385 230.539 83.1105C230.755 83.1705 231.049 83.2305 231.421 83.2905C231.805 83.3505 232.309 83.4045 232.933 83.4525C233.797 83.5125 234.487 83.6565 235.003 83.8845C235.519 84.1125 235.891 84.4305 236.119 84.8385C236.347 85.2345 236.461 85.7205 236.461 86.2965C236.461 86.8005 236.317 87.2805 236.029 87.7365C235.753 88.1925 235.309 88.5645 234.697 88.8525C234.097 89.1525 233.317 89.3025 232.357 89.3025ZM232.339 82.1745C231.571 82.1745 230.917 82.0305 230.377 81.7425C229.849 81.4425 229.447 81.0405 229.171 80.5365C228.895 80.0205 228.757 79.4445 228.757 78.8085C228.757 78.1725 228.895 77.6025 229.171 77.0985C229.459 76.5945 229.867 76.1925 230.395 75.8925C230.935 75.5925 231.583 75.4425 232.339 75.4425C233.119 75.4425 233.773 75.5925 234.301 75.8925C234.829 76.1925 235.231 76.5945 235.507 77.0985C235.783 77.6025 235.921 78.1725 235.921 78.8085C235.921 79.4445 235.783 80.0205 235.507 80.5365C235.231 81.0405 234.829 81.4425 234.301 81.7425C233.773 82.0305 233.119 82.1745 232.339 82.1745ZM232.339 80.9325C233.011 80.9325 233.533 80.7585 233.905 80.4105C234.277 80.0505 234.463 79.5165 234.463 78.8085C234.463 78.1005 234.277 77.5725 233.905 77.2245C233.533 76.8765 233.011 76.7025 232.339 76.7025C231.703 76.7025 231.181 76.8765 230.773 77.2245C230.377 77.5725 230.179 78.1005 230.179 78.8085C230.179 79.5165 230.371 80.0505 230.755 80.4105C231.151 80.7585 231.679 80.9325 232.339 80.9325ZM233.923 76.9365L233.473 75.6585H237.181V76.7925L233.923 76.9365ZM242.575 85.3425C241.735 85.3425 240.991 85.1385 240.343 84.7305C239.695 84.3225 239.185 83.7465 238.813 83.0025C238.453 82.2585 238.273 81.3885 238.273 80.3925C238.273 79.3965 238.453 78.5265 238.813 77.7825C239.185 77.0385 239.695 76.4625 240.343 76.0545C241.003 75.6465 241.759 75.4425 242.611 75.4425C243.523 75.4425 244.285 75.6465 244.897 76.0545C245.509 76.4625 245.971 77.0085 246.283 77.6925C246.595 78.3765 246.751 79.1265 246.751 79.9425C246.751 80.0625 246.751 80.1825 246.751 80.3025C246.751 80.4225 246.745 80.5665 246.733 80.7345H239.407V79.5645H245.275C245.251 78.6405 244.981 77.9385 244.465 77.4585C243.961 76.9665 243.331 76.7205 242.575 76.7205C242.071 76.7205 241.603 76.8465 241.171 77.0985C240.751 77.3385 240.409 77.6985 240.145 78.1785C239.881 78.6585 239.749 79.2585 239.749 79.9785V80.4825C239.749 81.2745 239.881 81.9405 240.145 82.4805C240.409 83.0085 240.751 83.4045 241.171 83.6685C241.603 83.9325 242.071 84.0645 242.575 84.0645C243.247 84.0645 243.775 83.9385 244.159 83.6865C244.543 83.4225 244.825 83.0505 245.005 82.5705H246.499C246.355 83.0985 246.103 83.5725 245.743 83.9925C245.395 84.4125 244.951 84.7425 244.411 84.9825C243.883 85.2225 243.271 85.3425 242.575 85.3425Z" fill="white"/>
<path d="M105.776 62.6265V18.5265H113.336L134.567 50.4045V18.5265H142.127V62.6265H134.567L113.336 30.8115V62.6265H105.776ZM165.549 63.3825C162.525 63.3825 159.795 62.6895 157.359 61.3035C154.965 59.8755 153.075 57.9225 151.689 55.4445C150.345 52.9245 149.673 50.0475 149.673 46.8135C149.673 43.4955 150.366 40.5975 151.752 38.1195C153.138 35.5995 155.028 33.6465 157.422 32.2605C159.858 30.8325 162.588 30.1185 165.612 30.1185C168.636 30.1185 171.345 30.8325 173.739 32.2605C176.175 33.6465 178.065 35.5785 179.409 38.0565C180.795 40.5345 181.488 43.4325 181.488 46.7505C181.488 50.0685 180.795 52.9665 179.409 55.4445C178.023 57.9225 176.112 59.8755 173.676 61.3035C171.282 62.6895 168.573 63.3825 165.549 63.3825ZM165.549 56.8935C167.061 56.8935 168.426 56.5155 169.644 55.7595C170.904 55.0035 171.912 53.8695 172.668 52.3575C173.424 50.8455 173.802 48.9765 173.802 46.7505C173.802 44.5245 173.424 42.6765 172.668 41.2065C171.954 39.6945 170.967 38.5605 169.707 37.8045C168.489 37.0485 167.124 36.6705 165.612 36.6705C164.142 36.6705 162.777 37.0485 161.517 37.8045C160.257 38.5605 159.249 39.6945 158.493 41.2065C157.737 42.6765 157.359 44.5245 157.359 46.7505C157.359 48.9765 157.737 50.8455 158.493 52.3575C159.249 53.8695 160.236 55.0035 161.454 55.7595C162.714 56.5155 164.079 56.8935 165.549 56.8935ZM201.455 62.6265C199.313 62.6265 197.444 62.2905 195.848 61.6185C194.294 60.9465 193.076 59.8335 192.194 58.2795C191.312 56.7255 190.871 54.6255 190.871 51.9795V37.2375H185.453V30.8745H190.871L191.753 22.4955H198.431V30.8745H207.062V37.2375H198.431V51.9795C198.431 53.5755 198.767 54.6885 199.439 55.3185C200.153 55.9065 201.329 56.2005 202.967 56.2005H206.873V62.6265H201.455ZM214.49 62.6265V30.8745H222.05V62.6265H214.49ZM218.27 25.8345C216.884 25.8345 215.729 25.4145 214.805 24.5745C213.923 23.6925 213.482 22.6215 213.482 21.3615C213.482 20.0595 213.923 19.0095 214.805 18.2115C215.729 17.3715 216.884 16.9515 218.27 16.9515C219.656 16.9515 220.79 17.3715 221.672 18.2115C222.596 19.0095 223.058 20.0595 223.058 21.3615C223.058 22.6215 222.596 23.6925 221.672 24.5745C220.79 25.4145 219.656 25.8345 218.27 25.8345Z" fill="white"/>
<path d="M231.038 62.6265V18.5265H246.914C250.442 18.5265 253.361 19.1355 255.671 20.3535C257.981 21.5295 259.703 23.1255 260.837 25.1415C261.971 27.1575 262.538 29.4675 262.538 32.0715C262.538 34.5075 261.992 36.7545 260.9 38.8125C259.808 40.8285 258.107 42.4665 255.797 43.7265C253.487 44.9445 250.526 45.5535 246.914 45.5535H238.598V62.6265H231.038ZM238.598 39.3795H246.473C249.455 39.3795 251.597 38.7285 252.899 37.4265C254.201 36.0825 254.852 34.2975 254.852 32.0715C254.852 29.7615 254.201 27.9555 252.899 26.6535C251.597 25.3515 249.455 24.7005 246.473 24.7005H238.598V39.3795ZM269.123 62.6265V30.8745H276.683V62.6265H269.123ZM272.903 25.8345C271.517 25.8345 270.362 25.4145 269.438 24.5745C268.556 23.6925 268.115 22.6215 268.115 21.3615C268.115 20.0595 268.556 19.0095 269.438 18.2115C270.362 17.3715 271.517 16.9515 272.903 16.9515C274.289 16.9515 275.423 17.3715 276.305 18.2115C277.229 19.0095 277.691 20.0595 277.691 21.3615C277.691 22.6215 277.229 23.6925 276.305 24.5745C275.423 25.4145 274.289 25.8345 272.903 25.8345ZM300.287 63.3825C297.137 63.3825 294.365 62.7105 291.971 61.3665C289.577 59.9805 287.708 58.0485 286.364 55.5705C285.02 53.0925 284.348 50.2365 284.348 47.0025C284.348 43.6425 284.999 40.7025 286.301 38.1825C287.645 35.6625 289.514 33.6885 291.908 32.2605C294.344 30.8325 297.158 30.1185 300.35 30.1185C303.458 30.1185 306.167 30.8115 308.477 32.1975C310.787 33.5835 312.572 35.4525 313.832 37.8045C315.092 40.1145 315.722 42.7185 315.722 45.6165C315.722 46.0365 315.722 46.4985 315.722 47.0025C315.722 47.5065 315.68 48.0315 315.596 48.5775H289.766V43.7265H308.099C308.015 41.4165 307.238 39.6105 305.768 38.3085C304.298 36.9645 302.471 36.2925 300.287 36.2925C298.733 36.2925 297.305 36.6495 296.003 37.3635C294.701 38.0775 293.672 39.1485 292.916 40.5765C292.16 41.9625 291.782 43.7265 291.782 45.8685V47.6955C291.782 49.6695 292.139 51.3705 292.853 52.7985C293.609 54.2265 294.617 55.3185 295.877 56.0745C297.179 56.7885 298.628 57.1455 300.224 57.1455C301.988 57.1455 303.437 56.7675 304.571 56.0115C305.747 55.2555 306.608 54.2475 307.154 52.9875H314.84C314.252 54.9615 313.286 56.7465 311.942 58.3425C310.598 59.8965 308.939 61.1355 306.965 62.0595C304.991 62.9415 302.765 63.3825 300.287 63.3825Z" fill="#03A9F4"/>
</svg>
